<svg id="Layer_1" data-name="Layer 1" xmlns="http://www.w3.org/2000/svg" viewBox="0 0 355.98 61.72"><defs><style>.cls-1{fill:#f7ba17;}.cls-2{fill:#fff;}</style></defs><path class="cls-1" d="M80.73,27.76c-4.71-5-10.56-6.87-17.45-6.25V20.26C63.16,8.6,54.4,0,42.76,0A20.05,20.05,0,0,0,23.88,14a20.28,20.28,0,0,0,7.43,22.49,20,20,0,0,0,26.2-2.22,11.6,11.6,0,0,1,8.64-3.82A11.13,11.13,0,0,1,70.64,51.7a11.09,11.09,0,0,1-13.45-3.36c-.51-.68-1-1.4-1.37-2L47.39,49c3.07,8.9,12.87,14.14,22.77,12.28S86.75,50.39,86.1,39.84A18.86,18.86,0,0,0,80.73,27.76Zm-37.68,3.5A11.07,11.07,0,0,1,32,20a11.13,11.13,0,0,1,22.25.17A11.12,11.12,0,0,1,43.05,31.26Z"/><path class="cls-1" d="M37.16,52.65c-5.82.06-11.65.09-17.47,0A11,11,0,0,1,9.11,42c-.13-5.24,2.5-8.7,7-10.95L14,22.45c-.56.18-1.21.33-1.82.59C3.84,26.61-1.36,36.12.29,44.73,2.2,54.61,10,61.51,19.66,61.66c8.13.12,16.27,0,24.41,0a2.8,2.8,0,0,0,.64-.12c-1.57-2.42-3.27-4.68-4.54-7.15A2.8,2.8,0,0,0,37.16,52.65Z"/><path class="cls-2" d="M205.2,22.32v5.6c-3.58-4.81-11.5-4.32-14.67.26A12.05,12.05,0,0,0,189,38.39a8.82,8.82,0,0,0,4.44,5.88c4,2.2,8.11,1.52,11.82-2.06v2.91h4.87V16.78H205.2Zm-5.83,18.89c-3.39,0-5.79-2.52-5.82-6.12a5.91,5.91,0,0,1,5.84-6.28c3.38,0,5.83,2.68,5.81,6.3S202.8,41.21,199.37,41.21Z"/><path class="cls-2" d="M237.78,22.74a13.13,13.13,0,0,1,6.59,3l2.93-3.87-.63-.44a16,16,0,0,0-12.88-3.05c-5.4,1-9.31,4-10.89,9.38a13,13,0,0,0,3.81,14.08c5.76,5.27,14.2,4.29,19.92.47a1,1,0,0,0,.38-.66c0-3.24,0-6.48,0-9.79h-4.47c0,2.26,0,4.35,0,6.45a1.63,1.63,0,0,1-.66,1.17,10.71,10.71,0,0,1-6.76,1.22,9.08,9.08,0,0,1,2.68-18Z"/><path class="cls-2" d="M115.9,37.29a9,9,0,0,1,.85-12.15c3.11-3,8.54-3.89,13.49,1l2.91-3.69C130,18.84,123.43,16.81,117.5,19c-5.73,2.14-9,7.21-8.81,13.75a13.53,13.53,0,0,0,9.87,12.16,14.51,14.51,0,0,0,14.61-4.17l-2.9-3.25C124.16,41.59,119.27,41.5,115.9,37.29Z"/><path class="cls-2" d="M152,24.64a9.42,9.42,0,0,0-7,4,10.94,10.94,0,0,0-.71,11.49c1.93,3.92,5.49,5.21,9.62,5.32h.59a10,10,0,0,0,9.42-6c1.71-4.15.86-9.12-2.13-12C159.09,24.73,155.66,24.19,152,24.64Zm2,16.57c-3.49,0-5.88-2.52-5.86-6.2s2.45-6.18,5.79-6.2,5.88,2.64,5.85,6.25S157.43,41.2,154,41.21Z"/><path class="cls-2" d="M262.55,24.91a13.89,13.89,0,0,0-3.64-.35c-4.14.11-7.41,1.85-9,5.76-1.73,4.15-1.46,8.25,1.54,11.81,2.63,3.12,6.23,3.69,10,3.2a10,10,0,0,0,6.6-3.43l-2.62-2.83c-2.48,2.13-5.16,3.1-8.25,1.72a5.29,5.29,0,0,1-3.08-4.13h15c0-1.25.06-2.35,0-3.45C268.8,28.9,266.41,25.84,262.55,24.91Zm-8.46,8.38a5.12,5.12,0,0,1,5.19-4.88c3-.08,5,1.7,5.29,4.88Z"/><path class="cls-2" d="M301.77,40.86a5.32,5.32,0,0,1-3.21-4.23h15c0-1.19.06-2.3,0-3.39-.3-4.34-2.77-7.47-6.65-8.37a14.37,14.37,0,0,0-3.53-.31c-4.19.11-7.49,1.87-9.1,5.84-1.69,4.15-1.41,8.26,1.63,11.79,2.63,3.06,6.19,3.62,10,3.15a10.07,10.07,0,0,0,6.64-3.43l-2.63-2.84C307.48,41.18,304.82,42.14,301.77,40.86Zm2-12.45c3-.08,5,1.7,5.29,4.88H298.54A5.12,5.12,0,0,1,303.73,28.41Z"/><path class="cls-2" d="M285.74,24.66c-3.51-.52-6.67.27-9,3.72V24.85h-4.86v20.3h4.9V43.82c0-3-.08-6.1.05-9.14a5.25,5.25,0,0,1,5.77-5.39c2.76.1,4.17,2,4.17,5.49v10.4h5c0-4.77.16-9.44-.05-14.09A6.49,6.49,0,0,0,285.74,24.66Z"/><path class="cls-2" d="M181.16,34.37a10.12,10.12,0,0,1-.67,3.45,4.94,4.94,0,0,1-5.68,2.82c-2.16-.48-3.34-2.07-3.37-4.66,0-3.2,0-6.41,0-9.62V24.87h-5c0,4.67-.08,9.26,0,13.85a6.57,6.57,0,0,0,5.61,6.54c3.59.66,6.74-.13,9.1-3.56v3.43h4.89V24.8h-4.9C181.19,28.06,181.25,31.22,181.16,34.37Z"/><path class="cls-2" d="M326.77,34.06c-1.29-.57-2.68-.94-4-1.43a14.56,14.56,0,0,1-2.6-1.09,1.82,1.82,0,0,1-.78-1.42,2.06,2.06,0,0,1,1.11-1.33,3.51,3.51,0,0,1,2.07-.25c1.91.41,3.78,1,5.76,1.52.49-1,1.06-2.13,1.66-3.33a11.82,11.82,0,0,0-5.76-2.11c-2.63-.29-5.23-.15-7.48,1.52a5.57,5.57,0,0,0,.3,9.08,27.42,27.42,0,0,0,4,1.67,20.88,20.88,0,0,1,3.27,1.32,2.13,2.13,0,0,1,.86,1.72,2.2,2.2,0,0,1-1.31,1.41,6.89,6.89,0,0,1-2.68.19,11.52,11.52,0,0,1-5.92-2.45l-1.77,3.59c4,2.8,8.26,3.59,12.81,2a5.38,5.38,0,0,0,3.9-4.88A5.37,5.37,0,0,0,326.77,34.06Z"/><path class="cls-2" d="M352.52,34.06c-1.3-.57-2.68-.94-4-1.43a14.56,14.56,0,0,1-2.6-1.09,1.86,1.86,0,0,1-.79-1.42,2.11,2.11,0,0,1,1.12-1.33,3.51,3.51,0,0,1,2.07-.25c1.9.41,3.78,1,5.76,1.52.49-1,1.06-2.13,1.66-3.33A11.85,11.85,0,0,0,350,24.62c-2.63-.29-5.23-.15-7.48,1.52a5.57,5.57,0,0,0,.3,9.08,27,27,0,0,0,4,1.67,21.7,21.7,0,0,1,3.27,1.32,2.09,2.09,0,0,1,.85,1.72,2.16,2.16,0,0,1-1.3,1.41,6.89,6.89,0,0,1-2.68.19A11.49,11.49,0,0,1,341,39.08l-1.77,3.59c4,2.8,8.26,3.59,12.8,2A5.37,5.37,0,0,0,356,39.83,5.37,5.37,0,0,0,352.52,34.06Z"/><path class="cls-2" d="M135.62,45.16h4.83V16.76h-4.83Z"/><path class="cls-2" d="M332.67,45.15h4.84V24.87h-4.84Z"/><path class="cls-2" d="M335.18,16.19a2.49,2.49,0,0,0-2.69,2.74,2.67,2.67,0,1,0,5.34.05A2.5,2.5,0,0,0,335.18,16.19Z"/></svg>