<svg xmlns="http://www.w3.org/2000/svg" width="1431" height="1073" viewBox="0 0 1431 1073">
  <g id="Group_79" data-name="Group 79" transform="translate(19435 21820)">
    <rect id="MW-JA963_bitcoi_ZR_20210216193705" width="1431" height="1073" rx="10" transform="translate(-19435 -21820)" fill="#b7b7b7"/>
    <g id="Group_76" data-name="Group 76" transform="translate(-18896 -21594.242)">
      <path id="Path_28" data-name="Path 28" d="M203.334,272.467c28.267-2.539,52.262,5.314,71.58,25.646,13.206,13.895,20.87,30.567,22.038,49.552,2.663,43.291-25.258,80.38-65.386,87.927-40.635,7.641-80.813-13.88-93.427-50.365l34.6-10.734c1.6,2.307,3.5,5.266,5.625,8.049a45.417,45.417,0,0,0,55.156,13.773c19.161-8.872,30.383-30.271,26.218-49.994-4.642-22-22.819-37.012-44.651-37.348-14.345-.224-25.532,5.873-35.441,15.668-29.9,29.56-73.622,33.193-107.483,9.145-28.717-20.392-41.217-58.26-30.453-92.261,10.68-33.74,42.311-57.138,77.433-57.282,47.752-.194,83.692,35.284,84.187,83.105C203.344,268.616,203.334,269.884,203.334,272.467ZM75.083,266.157c-.06,25.813,19.828,46.185,45.238,46.337a45.654,45.654,0,0,0,46.063-45.628A45.133,45.133,0,0,0,121.393,221.2C95.294,221.1,75.145,240.655,75.083,266.157Z" transform="translate(56.316)" fill="#949494"/>
      <path id="Path_29" data-name="Path 29" d="M65.98,256.705c-18.291,9.242-29.1,23.446-28.563,44.924C38,324.715,57.75,344.848,80.842,345.172c23.876.336,47.759.241,71.637-.02,5.965-.065,9.347,1.308,12.371,7.211,5.2,10.153,12.179,19.4,18.619,29.344a11.672,11.672,0,0,1-2.636.48c-33.379.027-66.764.413-100.136-.089C41,381.5,9.068,353.208,1.261,312.66c-6.8-35.326,14.561-74.31,48.836-88.988a75.9,75.9,0,0,1,7.475-2.385Z" transform="translate(0 55.069)" fill="#949494"/>
    </g>
  </g>
</svg>
