<svg xmlns="http://www.w3.org/2000/svg" width="478" height="359" viewBox="0 0 478 359">
  <g id="Group_78" data-name="Group 78" transform="translate(19435 20647)">
    <rect id="MW-JA963_bitcoi_ZR_20210216193705" width="478" height="359" rx="10" transform="translate(-19435 -20647)" fill="#b7b7b7"/>
    <g id="Group_77" data-name="Group 77" transform="translate(-19284 -20715.242)" style="isolation: isolate">
      <path id="Path_28" data-name="Path 28" d="M120.609,228.355c14.134-1.269,26.131,2.657,35.79,12.823a38.737,38.737,0,0,1,11.019,24.776c1.332,21.645-12.629,40.19-32.693,43.963-20.318,3.821-40.406-6.94-46.713-25.182l17.3-5.367c.8,1.154,1.749,2.633,2.812,4.024a22.709,22.709,0,0,0,27.578,6.887c9.581-4.436,15.192-15.136,13.109-25a23.021,23.021,0,0,0-22.325-18.674c-7.172-.112-12.766,2.937-17.72,7.834-14.949,14.78-36.811,16.6-53.742,4.573A41.59,41.59,0,0,1,39.8,212.883a41.112,41.112,0,0,1,38.717-28.641c23.876-.1,41.846,17.642,42.093,41.553C120.614,226.429,120.609,227.063,120.609,228.355ZM56.483,225.2a22.827,22.827,0,1,0,23.155-22.477C66.589,202.669,56.515,212.448,56.483,225.2Z" transform="translate(9.216 0)" fill="#949494"/>
      <path id="Path_29" data-name="Path 29" d="M32.99,239c-9.146,4.621-14.55,11.723-14.281,22.462C19,273,28.875,283.068,40.421,283.229c11.938.168,23.88.121,35.819-.01,2.983-.032,4.673.654,6.185,3.605,2.6,5.076,6.09,9.7,9.31,14.672a5.835,5.835,0,0,1-1.318.24c-16.69.014-33.382.206-50.068-.045C20.5,301.393,4.534,287.248.63,266.974c-3.4-17.663,7.281-37.155,24.418-44.494a37.946,37.946,0,0,1,3.737-1.192Z" transform="translate(0 9.012)" fill="#949494"/>
    </g>
  </g>
</svg>
