<svg xmlns="http://www.w3.org/2000/svg" width="49.807" height="49.807" viewBox="0 0 49.807 49.807">
  <g id="Group_74" data-name="Group 74" transform="translate(19358 23294)">
    <rect id="Rectangle_39" data-name="Rectangle 39" width="49.806" height="49.806" rx="10" transform="translate(-19358 -23294)" fill="#e60023"/>
    <g id="Group_58" data-name="Group 58" transform="translate(-19348.125 -23286.016)">
      <path id="Path_27" data-name="Path 27" d="M1881.516,2491.123l1.508-5.736c.774,1.508,3.076,2.778,5.518,2.778,7.264,0,12.5-6.688,12.5-15,0-7.979-6.51-13.933-14.866-13.933-10.42,0-15.938,6.986-15.938,14.588,0,3.553,1.885,7.939,4.9,9.348.457.218.714.119.814-.318.079-.337.5-1.985.675-2.739a.719.719,0,0,0-.159-.695,9.41,9.41,0,0,1-1.786-5.5,10.436,10.436,0,0,1,10.9-10.46c5.934,0,10.083,4.029,10.083,9.8,0,6.51-3.295,11.035-7.582,11.035a3.508,3.508,0,0,1-3.572-4.366c.695-2.878,2-5.974,2-8.038,0-1.846-.992-3.394-3.057-3.394-2.421,0-4.366,2.5-4.366,5.855a8.78,8.78,0,0,0,.715,3.573s-2.382,10.1-2.819,11.988a23.2,23.2,0,0,0-.081,6.913c.538.21,1.083.409,1.639.582A26.129,26.129,0,0,0,1881.516,2491.123Z" transform="translate(-1870.243 -2459.228)" fill="#fff"/>
    </g>
  </g>
</svg>
