<svg xmlns="http://www.w3.org/2000/svg" width="49.807" height="49.807" viewBox="0 0 49.807 49.807">
  <g id="Group_73" data-name="Group 73" transform="translate(19442 23294)">
    <rect id="Rectangle_37" data-name="Rectangle 37" width="49.806" height="49.806" rx="10" transform="translate(-19442 -23294)" fill="#1da1f2"/>
    <path id="Path_24" data-name="Path 24" d="M1899.332,2626.057a13.2,13.2,0,0,1-3.647,1,6.3,6.3,0,0,0,2.785-3.5,12.66,12.66,0,0,1-4.014,1.533,6.33,6.33,0,0,0-10.95,4.328,6.533,6.533,0,0,0,.147,1.444,17.918,17.918,0,0,1-13.048-6.622,6.331,6.331,0,0,0,1.945,8.46,6.249,6.249,0,0,1-2.86-.779v.069a6.359,6.359,0,0,0,5.072,6.22,6.329,6.329,0,0,1-1.659.208,5.609,5.609,0,0,1-1.2-.108,6.391,6.391,0,0,0,5.915,4.41,12.72,12.72,0,0,1-7.849,2.7,11.85,11.85,0,0,1-1.515-.087,17.821,17.821,0,0,0,9.711,2.841c11.649,0,18.017-9.649,18.017-18.013,0-.28-.01-.55-.023-.818A12.627,12.627,0,0,0,1899.332,2626.057Z" transform="translate(-21300.002 -25903.975)" fill="#fff"/>
  </g>
</svg>
