<svg xmlns="http://www.w3.org/2000/svg" width="49.807" height="49.807" viewBox="0 0 49.807 49.807">
  <g id="Group_71" data-name="Group 71" transform="translate(19526 23294)">
    <rect id="Rectangle_35" data-name="Rectangle 35" width="49.806" height="49.806" rx="10" transform="translate(-19526 -23294)" fill="red"/>
    <g id="Group_55" data-name="Group 55" transform="translate(-19516.672 -23279.359)">
      <path id="Path_10" data-name="Path 10" d="M1900.757,2026.875a3.927,3.927,0,0,0-2.763-2.781c-2.437-.657-12.21-.657-12.21-.657s-9.773,0-12.21.657a3.926,3.926,0,0,0-2.763,2.781,44.2,44.2,0,0,0,0,15.142,3.926,3.926,0,0,0,2.763,2.781c2.437.657,12.21.657,12.21.657s9.773,0,12.21-.657a3.927,3.927,0,0,0,2.763-2.781,44.194,44.194,0,0,0,0-15.142Z" transform="translate(-1870.158 -2023.437)" fill="#fff"/>
      <path id="Path_11" data-name="Path 11" d="M1899.2,2047.595l8.168-4.647-8.168-4.647Z" transform="translate(-1886.767 -2031.939)" fill="red"/>
    </g>
  </g>
</svg>
